<svg width="450" height="551" viewBox="0 0 450 551" fill="none" xmlns="http://www.w3.org/2000/svg">
<path d="M29.1719 525.748C18.672 507.248 2.70597 484.998 8.17195 457.748C11.5517 440.899 29.1719 419.077 29.1719 419.077C29.1719 419.077 49.1267 398.615 49.1719 382.248C49.2174 365.798 29.1719 345.175 29.1719 345.175C29.1719 345.175 7.51133 323.508 8.17195 306.248C8.78925 290.119 29.1719 270.65 29.1719 270.65C29.1719 270.65 50.8487 252.028 49.1719 236.748C47.7497 223.787 29.1719 210.013 29.1719 210.013C29.1719 210.013 -2.60495 189.949 0.171947 171.248C2.51435 155.473 29.1719 142.496 29.1719 142.496C29.1719 142.496 58.2874 129.466 58.6719 113.248C59.0659 96.6345 29.1719 82.5797 29.1719 82.5797C29.1719 82.5797 10.8178 72.2782 8.17195 60.748C4.6069 45.2119 17.672 39.748 29.1719 25.748C40.6719 11.748 36.7877 2.85619 49.1719 0.247984C64.3321 -2.94484 79.5624 25.748 79.5624 25.748C79.5624 25.748 86.0942 35.5656 92.6719 36.748C101.177 38.2768 111.872 25.748 111.872 25.748C111.872 25.748 127.745 10.2084 140.672 9.24798C155.566 8.14142 175.172 25.748 175.172 25.748C175.172 25.748 188.219 36.4929 198.172 36.748C208.692 37.0176 222.772 25.748 222.772 25.748C222.772 25.748 243.89 8.89664 259.672 9.24798C274.709 9.58275 294.472 25.748 294.472 25.748C294.472 25.748 307.667 36.087 317.672 36.748C329.322 37.5176 345.472 25.748 345.472 25.748C345.472 25.748 369.659 9.29082 387.172 9.24798C404.794 9.20488 418.172 20.748 429.172 25.748C440.172 30.748 445.184 28.7304 448.672 36.748C453.712 48.3342 429.172 62.5649 429.172 62.5649C429.172 62.5649 413.978 73.4123 413.172 83.748C412.27 95.3089 429.172 108.762 429.172 108.762C429.172 108.762 450.541 125.24 448.672 139.248C447.112 150.941 429.172 162.318 429.172 162.318C429.172 162.318 415.178 171.779 413.172 181.248C410.435 194.165 429.172 211.033 429.172 211.033C429.172 211.033 447.18 228.215 445.672 241.748C444.415 253.025 429.172 265.664 429.172 265.664C429.172 265.664 401.749 287.001 401.172 306.248C400.568 326.378 429.172 349.555 429.172 349.555C429.172 349.555 437.482 357.519 438.672 364.248C440.336 373.654 429.172 386.787 429.172 386.787C429.172 386.787 412.874 408.663 413.172 424.748C413.457 440.158 429.172 460.826 429.172 460.826C429.172 460.826 436.832 473.283 438.672 482.248C442.167 499.281 438.672 510.248 429.172 525.748C419.672 541.248 414.201 545.667 401.172 544.248C389.92 543.023 378.863 525.748 378.863 525.748C378.863 525.748 369.639 509.702 360.172 510.248C351.306 510.759 343.532 525.748 343.532 525.748C343.532 525.748 334.085 542.267 323.672 544.248C310.351 546.783 294.29 525.748 294.29 525.748C294.29 525.748 281.033 510.2 269.672 510.248C258.387 510.295 245.282 525.748 245.282 525.748C245.282 525.748 229.639 543.972 216.172 544.248C202.254 544.533 185.701 525.748 185.701 525.748C185.701 525.748 171.835 510.107 160.172 510.248C148.737 510.387 135.326 525.748 135.326 525.748C135.326 525.748 118.969 547.328 105.672 544.248C95.7182 541.942 87.1719 525.748 87.1719 525.748C87.1719 525.748 79.9153 507.94 71.6719 510.248C64.9841 512.121 62.9532 525.748 62.9532 525.748C62.9532 525.748 59.9872 548.367 49.1719 550.248C37.0037 552.365 39.6719 544.248 29.1719 525.748Z" fill="#5A7546"/>
</svg>
